<?xml version="1.0" encoding="iso-8859-1"?>
<!-- Uploaded to: SVG Repo, www.svgrepo.com, Generator: SVG Repo Mixer Tools -->
<svg fill="#000000" height="800px" width="800px" version="1.1" id="Layer_1" xmlns="http://www.w3.org/2000/svg" xmlns:xlink="http://www.w3.org/1999/xlink" 
	 viewBox="0 0 511.999 511.999" xml:space="preserve">
<g transform="translate(0 -1)">
	<g>
		<g>
			<path d="M256.003,120.467c32.853,0,151.893-9.532,212.284-17.007l9.95-2.21l-9.404-26.317c-1.468-4.13-5.828-6.468-10.095-5.41
				c-33.058,8.26-167.859,16.811-202.735,16.811S86.326,77.783,53.276,69.523c-4.258-1.058-8.636,1.271-10.112,5.41l-9.353,26.197
				l10.342,2.389C104.698,110.978,223.235,120.467,256.003,120.467z"/>
			<path d="M511.505,194.398l-27.494-76.988l-12.826,2.85c-54.118,6.733-162.569,15.923-206.652,17.135v25.737
				c0,4.71-3.814,8.533-8.533,8.533c-4.71,0-8.533-3.823-8.533-8.533v-25.737c-44.075-1.212-152.465-10.394-205.841-16.99
				c-0.299-0.043-0.589-0.094-0.879-0.154l-12.723-2.935L0.495,194.398C0.171,195.319,0,196.284,0,197.265
				c0,3.183,0.759,6.938,2.372,11.827c16.23,48.964,146.569,235.639,185.361,235.639h5.103h126.327h5.103
				c38.784,0,169.071-186.581,185.344-235.597c0.009-0.009,0.017-0.017,0.017-0.026c1.596-4.813,2.372-8.678,2.372-11.844
				C512,196.284,511.838,195.319,511.505,194.398z M186.88,408.84c-0.043,2.355-0.077,4.71-0.222,7.04
				c-0.137,2.338-0.358,4.651-0.606,6.955c-0.162,1.485-0.401,2.944-0.597,4.412c-27.034-8.431-134.699-150.101-162.577-212.634
				c1.468,0.034,2.953,0.145,4.429,0.239c1.502,0.094,3.004,0.136,4.514,0.299c1.673,0.171,3.354,0.469,5.035,0.717
				c3.422,0.512,6.852,1.169,10.283,1.98c1.263,0.299,2.534,0.529,3.797,0.87c1.792,0.478,3.575,1.084,5.367,1.647
				c1.442,0.452,2.893,0.862,4.335,1.365c1.749,0.606,3.482,1.323,5.222,2.005c1.468,0.58,2.953,1.135,4.42,1.766
				c1.707,0.734,3.388,1.553,5.086,2.355c1.493,0.717,2.987,1.408,4.471,2.167c1.647,0.845,3.277,1.766,4.907,2.671
				c1.51,0.845,3.021,1.681,4.514,2.577c1.587,0.956,3.157,1.954,4.727,2.961c1.519,0.981,3.029,1.963,4.523,2.995
				c1.519,1.041,3.029,2.125,4.531,3.226c1.51,1.109,3.012,2.244,4.506,3.413c1.451,1.126,2.893,2.278,4.326,3.465
				c1.502,1.246,2.995,2.534,4.471,3.84c1.365,1.203,2.731,2.415,4.079,3.669c1.493,1.399,2.97,2.842,4.437,4.292
				c1.271,1.263,2.551,2.526,3.806,3.831c1.493,1.553,2.944,3.174,4.395,4.787c1.169,1.297,2.355,2.586,3.499,3.925
				c1.51,1.758,2.961,3.593,4.42,5.419c1.024,1.28,2.074,2.534,3.072,3.849c1.604,2.099,3.14,4.275,4.668,6.451
				c0.794,1.126,1.621,2.219,2.398,3.362c2.278,3.362,4.489,6.801,6.596,10.334c3.012,5.043,5.777,10.172,8.346,15.351
				c0.862,1.741,1.562,3.524,2.372,5.274c1.604,3.473,3.217,6.946,4.617,10.462c0.836,2.108,1.519,4.25,2.287,6.374
				c1.152,3.191,2.33,6.383,3.311,9.591c0.7,2.27,1.246,4.548,1.852,6.827c0.836,3.089,1.673,6.178,2.347,9.267
				c0.503,2.338,0.879,4.685,1.297,7.023c0.538,3.021,1.067,6.042,1.451,9.045c0.299,2.372,0.486,4.736,0.691,7.091
				c0.06,0.7,0.085,1.399,0.145,2.099c0.205,2.833,0.384,5.641,0.461,8.405c0.026,1.135,0.017,2.27,0.026,3.396
				C186.923,406.494,186.889,407.663,186.88,408.84z M229.316,346.496l-11.401,20.378c-5.734,2.313-11.255,5.146-16.512,8.482
				c-0.572-3.524-1.118-7.023-1.877-10.547l14.899-26.641c2.295-4.113,7.475-5.589,11.614-3.277
				C230.144,337.186,231.62,342.383,229.316,346.496z M310.605,375.356c-5.265-3.337-10.778-6.17-16.521-8.482l-11.392-20.378
				c-2.304-4.113-0.836-9.31,3.277-11.605c4.122-2.304,9.318-0.836,11.614,3.277l14.899,26.641
				C311.723,368.333,311.168,371.831,310.605,375.356z M326.554,427.247c-0.205-1.468-0.435-2.927-0.597-4.412
				c-0.247-2.304-0.469-4.617-0.614-6.955c-0.145-2.33-0.171-4.685-0.213-7.04c-0.017-1.178-0.043-2.347-0.034-3.541
				c0.009-1.126-0.009-2.261,0.026-3.396c0.077-2.765,0.247-5.572,0.461-8.405c0.051-0.7,0.077-1.399,0.145-2.099
				c0.205-2.355,0.384-4.719,0.691-7.091c0.375-3.004,0.913-6.025,1.451-9.045c0.418-2.338,0.785-4.685,1.297-7.023
				c0.674-3.089,1.51-6.178,2.338-9.267c0.614-2.278,1.161-4.557,1.852-6.827c0.99-3.209,2.159-6.4,3.311-9.591
				c0.768-2.125,1.451-4.267,2.296-6.374c1.399-3.516,3.012-6.989,4.617-10.462c0.802-1.749,1.51-3.533,2.372-5.274
				c2.56-5.18,5.333-10.308,8.346-15.351c2.108-3.533,4.309-6.972,6.588-10.334c0.777-1.152,1.613-2.244,2.406-3.371
				c1.536-2.167,3.063-4.344,4.659-6.443c0.998-1.314,2.048-2.569,3.072-3.849c1.459-1.826,2.918-3.661,4.429-5.427
				c1.135-1.331,2.313-2.603,3.473-3.9c1.459-1.621,2.918-3.243,4.42-4.813c1.246-1.297,2.517-2.551,3.789-3.806
				c1.476-1.459,2.953-2.91,4.454-4.309c1.34-1.246,2.696-2.458,4.062-3.661c1.485-1.306,2.978-2.603,4.497-3.857
				c1.417-1.169,2.842-2.321,4.284-3.439c1.51-1.178,3.029-2.33,4.557-3.448c1.476-1.084,2.97-2.15,4.471-3.183
				c1.527-1.05,3.063-2.057,4.608-3.055c1.536-0.981,3.081-1.963,4.634-2.893c1.536-0.93,3.098-1.792,4.651-2.662
				c1.579-0.879,3.157-1.766,4.753-2.586c1.57-0.811,3.157-1.544,4.736-2.295c1.596-0.751,3.191-1.536,4.804-2.227
				c1.613-0.691,3.234-1.306,4.855-1.937c1.596-0.623,3.183-1.289,4.787-1.843c1.724-0.606,3.447-1.101,5.18-1.63
				c1.502-0.461,3.004-0.981,4.514-1.391c3.166-0.845,6.323-1.579,9.489-2.176c1.22-0.23,2.449-0.35,3.669-0.546
				c2.039-0.316,4.07-0.657,6.101-0.87c1.374-0.145,2.739-0.179,4.105-0.273c1.596-0.102,3.191-0.213,4.779-0.256
				C461.252,277.146,353.579,418.816,326.554,427.247z"/>
		</g>
	</g>
</g>
</svg>