<?xml version="1.0" encoding="iso-8859-1"?>
<!-- Uploaded to: SVG Repo, www.svgrepo.com, Generator: SVG Repo Mixer Tools -->
<svg fill="#000000" height="800px" width="800px" version="1.1" id="Layer_1" xmlns="http://www.w3.org/2000/svg" xmlns:xlink="http://www.w3.org/1999/xlink" 
	 viewBox="0 0 512.008 512.008" xml:space="preserve">
<g transform="translate(0 -1)">
	<g>
		<g>
			<path d="M399.487,380.058c-2.722-3.831-8.047-4.745-11.904-1.997c-18.944,13.491-34.62,21.402-47.923,24.175
				c-26.761,5.163-58.82,8.371-83.652,8.371c-24.841,0-56.9-3.209-83.661-8.371c-13.303-2.773-28.979-10.684-47.923-24.175
				c-3.857-2.756-9.182-1.843-11.904,1.997c-2.731,3.84-1.843,9.165,1.997,11.904c18.697,13.321,34.876,21.751,49.289,25.728
				c8.346,25.438,38.238,64.939,56.354,81.963c9.182,8.61,21.103,13.355,33.579,13.355h4.531c12.476,0,24.405-4.744,33.579-13.355
				c18.125-17.024,48.009-56.525,56.354-81.963c14.413-3.977,30.592-12.407,49.289-25.728
				C401.331,389.223,402.218,383.898,399.487,380.058z"/>
			<path d="M140.804,224.334c7.168,6.195,15.13,7.177,19.456,7.177c0.99,0,1.792-0.051,2.355-0.102
				c22.255-0.111,50.671-8.132,66.586-13.252c6.246,8.004,15.881,13.252,26.803,13.252c10.923,0,20.557-5.248,26.803-13.252
				c15.915,5.12,44.331,13.141,66.586,13.252c0.563,0.051,1.365,0.102,2.355,0.102c4.326,0,12.288-0.981,19.456-7.177
				c8.491-7.339,12.8-19.319,12.8-35.593c0-35.985-27.46-78.268-34.227-88.141c-0.981-17.075-9.958-63.565-26.487-95.027
				c-2.193-4.173-7.347-5.794-11.52-3.584c-4.173,2.193-5.786,7.347-3.584,11.52c15.147,28.834,23.535,72.9,24.516,87.407
				c-2.014,2.56-6.613,7.467-10.906,12.032c-13.696,14.541-33.271,35.396-45.602,56.951c-5.666-4.19-12.612-6.758-20.19-6.758
				c-7.578,0-14.524,2.569-20.19,6.758c-12.331-21.555-31.906-42.411-45.602-56.951c-4.335-4.608-8.977-9.557-10.914-11.998
				c0.981-14.473,9.37-58.59,24.525-87.441c2.202-4.173,0.589-9.327-3.584-11.52c-4.164-2.202-9.327-0.589-11.52,3.584
				c-16.529,31.462-25.506,77.952-26.487,95.027c-6.767,9.873-34.227,52.156-34.227,88.141
				C128.005,205.014,132.314,216.995,140.804,224.334z M239.51,193.127c0.017-0.068,0.043-0.137,0.06-0.205
				c0.384-1.357,0.93-2.688,1.681-4.002c0.017-0.043,0.009-0.085,0.034-0.128c2.953-5.103,8.414-8.585,14.72-8.585
				c6.306,0,11.767,3.482,14.72,8.585c0.026,0.043,0.017,0.085,0.034,0.128c0.751,1.314,1.297,2.645,1.681,4.002
				c0.017,0.068,0.043,0.137,0.06,0.205c0.375,1.374,0.572,2.756,0.572,4.147c0,2.398-0.538,4.787-1.613,7.117
				c-0.009,0.009-0.009,0.026-0.009,0.043c-2.722,5.828-8.602,9.907-15.445,9.907c-6.844,0-12.723-4.079-15.445-9.907
				c0-0.017,0-0.034-0.008-0.043c-1.075-2.33-1.613-4.719-1.613-7.117C238.938,195.884,239.135,194.501,239.51,193.127z"/>
		</g>
	</g>
</g>
</svg>