<?xml version="1.0" encoding="iso-8859-1"?>
<!-- Uploaded to: SVG Repo, www.svgrepo.com, Generator: SVG Repo Mixer Tools -->
<svg fill="#000000" version="1.1" id="Layer_1" xmlns="http://www.w3.org/2000/svg" xmlns:xlink="http://www.w3.org/1999/xlink" 
	 viewBox="0 0 512 512" xml:space="preserve">
<g>
	<g>
		<rect x="45.888" y="347.763" width="420.224" height="49.61"/>
	</g>
</g>
<g>
	<g>
		<path d="M446.904,192.895c-10.157,0-18.42-8.264-18.42-18.419V33.654c0-5.65-2.487-11.012-6.801-14.66
			C407.203,6.746,388.609,0,369.333,0h-21.724c-8.768,0-17.353,5.788-18.921,17.266H183.485C182.517,7.57,174.335,0,164.384,0
			H142.66c-19.277,0-37.869,6.746-52.351,18.993c-4.315,3.648-6.802,9.011-6.802,14.661v140.822
			c0,10.157-8.262,18.419-18.419,18.419c-10.604,0-19.2,8.596-19.2,19.2v97.27h420.218v-97.27
			C466.104,201.491,457.509,192.895,446.904,192.895z M193.901,55.666h124.273C289.649,100.145,221.29,99.012,193.901,55.666z"/>
	</g>
</g>
<g>
	<g>
		<path d="M45.888,435.775V492.8c0,10.604,8.596,19.2,19.2,19.2h381.818c10.604,0,19.2-8.596,19.2-19.2v-57.025H45.888z"/>
	</g>
</g>
</svg>