<?xml version="1.0" encoding="iso-8859-1"?>
<!-- Uploaded to: SVG Repo, www.svgrepo.com, Generator: SVG Repo Mixer Tools -->
<svg fill="#000000" height="800px" width="800px" version="1.1" id="Layer_1" xmlns="http://www.w3.org/2000/svg" xmlns:xlink="http://www.w3.org/1999/xlink" 
	 viewBox="0 0 511.999 511.999" xml:space="preserve">
<g>
	<g>
		<path d="M511.815,335.3l-34.057-160.691c-0.008-0.043,0.009-0.085,0-0.137l-8.303-52.079c-0.427-2.722-2.15-5.06-4.608-6.298
			c-2.449-1.22-5.35-1.195-7.799,0.085c-28.356,14.967-87.663,23.774-171.52,25.532c-8.354-5.931-18.526-9.446-29.525-9.446
			c-10.999,0-21.171,3.516-29.525,9.438c-83.721-1.766-142.95-10.564-171.29-25.523c-2.458-1.28-5.35-1.306-7.808-0.085
			c-2.458,1.237-4.173,3.575-4.608,6.298l-8.013,50.313c-0.051,0.171-0.171,0.29-0.205,0.461L0.182,335.3
			c-0.324,1.545-0.213,3.149,0.316,4.642c0.836,2.321,21.581,56.858,127.189,56.858c101.419,0,117.043-25.754,119.151-30.916
			c0.41-1.015,0.631-2.116,0.631-3.217V320h17.067v42.667c0,1.109,0.213,2.202,0.631,3.217
			c2.099,5.163,17.732,30.916,119.151,30.916c105.609,0,126.345-54.537,127.181-56.858
			C512.037,338.449,512.139,336.844,511.815,335.3z M206.663,169.966c-0.094,0.358-0.188,0.734-0.282,1.101
			c-0.393,1.579-0.708,3.183-0.956,4.821c-0.077,0.486-0.162,0.973-0.222,1.468c-0.247,2.005-0.401,4.036-0.401,6.11
			c0,1.971,0.137,3.908,0.35,5.82c0.034,0.256,0.085,0.512,0.119,0.768c0.239,1.818,0.572,3.593,0.99,5.342
			c-21.231-1.34-42.624-3.499-63.019-6.281c-34.611-4.821-66.039-11.648-90.65-19.857l5.265-33.092
			c31.164,12.518,82.671,19.977,153.549,22.229C209.368,162.005,207.781,165.887,206.663,169.966z M285.545,200.251
			c-0.034,0.051-0.085,0.085-0.111,0.137c-2.048,3.55-4.659,6.579-7.62,9.114c-0.563,0.469-1.109,0.973-1.707,1.408
			c-0.708,0.529-1.451,1.015-2.193,1.485c-1.229,0.759-2.5,1.468-3.823,2.082c-0.341,0.154-0.666,0.35-1.007,0.495
			c-1.766,0.734-3.618,1.289-5.521,1.715c-0.478,0.111-0.964,0.205-1.451,0.299c-1.988,0.358-4.019,0.614-6.11,0.614
			s-4.122-0.256-6.11-0.614c-0.486-0.094-0.973-0.188-1.459-0.299c-1.894-0.427-3.755-0.981-5.521-1.715
			c-0.341-0.145-0.657-0.341-0.998-0.495c-1.331-0.614-2.594-1.323-3.831-2.082c-0.742-0.469-1.485-0.956-2.193-1.485
			c-0.597-0.435-1.143-0.939-1.707-1.408c-2.961-2.534-5.572-5.564-7.612-9.114c-1.289-2.219-2.244-4.506-3.004-6.818
			c-0.213-0.683-0.461-1.34-0.631-2.039c-0.205-0.785-0.35-1.579-0.495-2.372c-0.316-1.86-0.572-3.746-0.572-5.692
			c0-2.5,0.299-4.958,0.836-7.347c0.085-0.358,0.239-0.691,0.333-1.05c0.538-2.065,1.212-4.096,2.142-6.025
			c0.094-0.213,0.222-0.401,0.324-0.606c1.058-2.091,2.295-4.105,3.78-5.965c0.017-0.017,0.034-0.034,0.051-0.06
			c1.587-1.971,3.405-3.806,5.444-5.444c0.06-0.034,0.085-0.094,0.137-0.137c5.82-4.625,13.09-7.501,21.086-7.501
			c8.585,0,16.35,3.294,22.349,8.542c1.169,1.007,2.219,2.091,3.217,3.217c0.742,0.845,1.493,1.69,2.159,2.603
			c0.503,0.7,0.913,1.442,1.365,2.167c3.132,5.154,5.043,11.145,5.043,17.604C290.136,189.593,288.378,195.276,285.545,200.251z
			 M366.126,189.499c-0.427,0.051-0.862,0.111-1.289,0.162c-2.355,0.316-4.736,0.614-7.117,0.913
			c-15.898,1.954-32.256,3.507-48.555,4.599c-1.067,0.077-2.125,0.154-3.2,0.222c0.973-3.9,1.468-7.885,1.468-11.93
			c0-8.909-2.33-17.502-6.665-25.071c70.904-2.244,122.428-9.702,153.609-22.229l5.257,33.015
			C434.358,177.638,401.889,184.635,366.126,189.499z"/>
	</g>
</g>
</svg>