<?xml version="1.0" encoding="iso-8859-1"?>
<!-- Uploaded to: SVG Repo, www.svgrepo.com, Generator: SVG Repo Mixer Tools -->
<svg fill="#000000" height="800px" width="800px" version="1.1" id="Layer_1" xmlns="http://www.w3.org/2000/svg" xmlns:xlink="http://www.w3.org/1999/xlink" 
	 viewBox="0 0 511.95 511.95" xml:space="preserve">
<g>
	<g>
		<path d="M389.523,357.393c-10.078-29.44-22.613-66.074-22.613-101.444c0-37.069,24.542-89.711,24.798-90.232
			c1.297-2.773,1.015-6.024-0.734-8.533c-7.893-11.255-13.491-44.535-15.556-72.525c-1.656-22.588,8.235-65.271,8.337-65.698
			c1.058-4.54-1.715-9.097-6.246-10.223l-34.133-8.533c-0.043-0.017-0.085,0.009-0.137,0c-1.135-0.273-2.295-0.256-3.439-0.051
			c-0.196,0.034-0.375,0.068-0.572,0.12c-0.964,0.239-1.911,0.597-2.756,1.178c-0.35,0.247-35.49,24.098-80.495,24.098
			c-44.783,0-80.145-23.859-80.495-24.098c-0.845-0.572-1.775-0.922-2.731-1.169c-0.205-0.051-0.401-0.085-0.606-0.119
			c-1.135-0.213-2.295-0.222-3.43,0.043c-0.043,0.009-0.094-0.017-0.137,0L134.445,8.74c-4.523,1.126-7.296,5.683-6.238,10.223
			c0.094,0.427,9.992,43.11,8.328,65.698c-2.057,27.989-7.654,61.269-15.548,72.525c-1.749,2.509-2.031,5.769-0.734,8.533
			c0.247,0.521,24.789,53.103,24.789,90.232c0,35.371-12.527,72.004-22.605,101.444c-6.443,18.816-11.529,33.681-11.529,43.622
			c0,3.396,2.022,6.468,5.137,7.825c31.795,13.833,114.33,57.788,114.33,94.575c0,4.71,3.823,8.533,8.533,8.533h34.133
			c4.719,0,8.533-3.823,8.533-8.533c0-36.787,82.534-80.742,114.338-94.575c3.115-1.357,5.129-4.429,5.129-7.825
			C401.043,391.074,395.966,376.209,389.523,357.393z M205.246,108.783c-11.81-12.169-19.635-30.071-23.467-53.419
			c22.852,11.29,32.785,38.323,32.623,61.056C211.117,114.185,208.045,111.667,205.246,108.783z M306.716,108.783
			c-2.756,2.842-5.777,5.316-9.003,7.526c-0.162-22.699,9.728-49.664,32.469-60.945C326.351,78.712,318.517,96.615,306.716,108.783z
			 M332.742,27.486c-0.094,2.987-0.299,5.837-0.495,8.695c-39.023,12.194-54.161,55.748-51.217,88.132
			c-0.35,0.111-0.7,0.23-1.05,0.341c-3.319,0.973-6.827,1.758-10.496,2.295c-0.427,0.06-0.879,0.102-1.314,0.154
			c-7.885,1.024-16.23,1.033-24.115,0.034c-0.503-0.06-1.015-0.111-1.51-0.179c-3.627-0.521-7.108-1.297-10.394-2.253
			c-0.358-0.102-0.708-0.23-1.067-0.341c2.935-32.401-12.254-75.972-51.371-88.201c-0.196-2.85-0.401-5.692-0.495-8.67
			c-0.026-0.811-0.077-1.579-0.094-2.398c-0.017-0.597,0.017-1.263,0-1.86c15.633,8.021,43.631,19.379,76.851,19.379
			c33.22,0,61.218-11.358,76.851-19.379c-0.009,0.606,0.026,1.263,0.009,1.86C332.819,25.916,332.768,26.684,332.742,27.486z"/>
	</g>
</g>
</svg>